<mxfile host="app.diagrams.net" modified="2024-04-08T10:27:53.751Z" agent="Mozilla/5.0 (Windows NT 10.0; Win64; x64) AppleWebKit/537.36 (KHTML, like Gecko) Chrome/123.0.0.0 Safari/537.36" etag="3QqOoOz-cfo_xP-sScqF" version="24.2.2" type="google">
  <diagram name="Page-1" id="7i0HS5fh59K__IMDZCdu">
    <mxGraphModel grid="1" page="1" gridSize="10" guides="1" tooltips="1" connect="1" arrows="1" fold="1" pageScale="1" pageWidth="827" pageHeight="1169" math="0" shadow="0">
      <root>
        <mxCell id="0" />
        <mxCell id="1" parent="0" />
        <mxCell id="bnqMVER4PhRWbPe9dfjj-3" value="Key" style="rounded=1;whiteSpace=wrap;html=1;labelPosition=center;verticalLabelPosition=middle;align=center;verticalAlign=top;fontSize=18;" vertex="1" parent="1">
          <mxGeometry x="80" y="40" width="390" height="120" as="geometry" />
        </mxCell>
        <mxCell id="bnqMVER4PhRWbPe9dfjj-4" value="&lt;font style=&quot;font-size: 18px;&quot; color=&quot;#000000&quot;&gt;Seller&lt;/font&gt;" style="shape=actor;whiteSpace=wrap;html=1;fillColor=#a20025;strokeColor=#6F0000;labelPosition=center;verticalLabelPosition=bottom;align=center;verticalAlign=top;fontSize=18;strokeWidth=2;labelBackgroundColor=none;fontColor=#ffffff;" vertex="1" parent="1">
          <mxGeometry x="110" y="50" width="40" height="60" as="geometry" />
        </mxCell>
        <mxCell id="bnqMVER4PhRWbPe9dfjj-5" value="&lt;font style=&quot;font-size: 18px;&quot; color=&quot;#000000&quot;&gt;Buyer&lt;/font&gt;" style="shape=actor;whiteSpace=wrap;html=1;fillColor=#1ba1e2;strokeColor=#006EAF;labelPosition=center;verticalLabelPosition=bottom;align=center;verticalAlign=top;fontSize=18;strokeWidth=2;labelBackgroundColor=none;fontColor=#ffffff;" vertex="1" parent="1">
          <mxGeometry x="190" y="50" width="40" height="60" as="geometry" />
        </mxCell>
        <mxCell id="bnqMVER4PhRWbPe9dfjj-6" value="sub system" style="rounded=1;whiteSpace=wrap;html=1;fillColor=#e1d5e7;strokeColor=#9673a6;fontSize=18;strokeWidth=2;labelBackgroundColor=none;" vertex="1" parent="1">
          <mxGeometry x="320" y="70" width="120" height="60" as="geometry" />
        </mxCell>
      </root>
    </mxGraphModel>
  </diagram>
</mxfile>
